HIERARCHY
ROOT Hips__w4v
{
  OFFSET -3.07492 48.3592 -0.6774
  CHANNELS 6 Xposition Yposition Zposition Zrotation Xrotation Yrotation
  JOINT Bip01_Pelvis__bBo
  {
    OFFSET 0 0 0
    CHANNELS 3 Zrotation Xrotation Yrotation
    JOINT BN_Tail_01__8Ri
    {
      OFFSET -5.32158 3.2873 -2.02656e-005
      CHANNELS 3 Zrotation Xrotation Yrotation
      JOINT BN_Tail_R_01__vdN
      {
        OFFSET 8.63232 1.35571 1.76378
        CHANNELS 3 Zrotation Xrotation Yrotation
        End Site
        {
          OFFSET 0 0 0
        }
      }
      JOINT BN_Tail_L_01__Qcw
      {
        OFFSET 8.63232 1.3557 -1.76371
        CHANNELS 3 Zrotation Xrotation Yrotation
        End Site
        {
          OFFSET 0 0 0
        }
      }
    }
    JOINT Bip01_Spine__UlJ
    {
      OFFSET 4.114 0.726341 -0.578045
      CHANNELS 3 Zrotation Xrotation Yrotation
      JOINT BN_Forearm_L_01__tJN
      {
        OFFSET 0.897232 2.54416 6.26078
        CHANNELS 3 Zrotation Xrotation Yrotation
        JOINT BN_Forearm_L_02__JiJ
        {
          OFFSET 10.741 0 0
          CHANNELS 3 Zrotation Xrotation Yrotation
          JOINT BN_Forearm_L_03__ror
          {
            OFFSET 16.0877 0 0
            CHANNELS 3 Zrotation Xrotation Yrotation
            JOINT BN_Forearm_L_04__il9
            {
              OFFSET 12.4668 0 0
              CHANNELS 3 Zrotation Xrotation Yrotation
              End Site
              {
                OFFSET 0 0 0
              }
            }
          }
        }
      }
      JOINT BN_Forearm_R_01__8dz
      {
        OFFSET 0.897229 2.54417 -6.26077
        CHANNELS 3 Zrotation Xrotation Yrotation
        JOINT BN_Forearm_R_02__5Px
        {
          OFFSET 10.741 0 0
          CHANNELS 3 Zrotation Xrotation Yrotation
          JOINT BN_Forearm_R_03__nhh
          {
            OFFSET 16.0877 0 0
            CHANNELS 3 Zrotation Xrotation Yrotation
            JOINT BN_Forearm_R_04__dxX
            {
              OFFSET 12.4668 0 0
              CHANNELS 3 Zrotation Xrotation Yrotation
              End Site
              {
                OFFSET 0 0 0
              }
            }
          }
        }
      }
      JOINT Bone02__old
      {
        OFFSET 3.20421 -2.7892 0
        CHANNELS 3 Zrotation Xrotation Yrotation
        JOINT Bone03__f96
        {
          OFFSET 8.22748 0 0
          CHANNELS 3 Zrotation Xrotation Yrotation
          End Site
          {
            OFFSET 0 0 0
          }
        }
      }
      JOINT Bip01_R_Thigh__qPK
      {
        OFFSET -4.35244 0.122402 -1.69166
        CHANNELS 3 Zrotation Xrotation Yrotation
        JOINT Bip01_R_Calf__swj
        {
          OFFSET 12.5918 0 0
          CHANNELS 3 Zrotation Xrotation Yrotation
          JOINT Bip01_R_HorseLink__kyi
          {
            OFFSET 15.7835 0 0
            CHANNELS 3 Zrotation Xrotation Yrotation
            JOINT Bip01_R_Foot__bwL
            {
              OFFSET 21.6004 0 0
              CHANNELS 3 Zrotation Xrotation Yrotation
              JOINT Bip01_R_Toe2__w2t
              {
                OFFSET 1.21026 0.746123 -0.418668
                CHANNELS 3 Zrotation Xrotation Yrotation
                End Site
                {
                  OFFSET 0 0 0
                }
              }
              JOINT Bip01_R_Toe1__eMA
              {
                OFFSET 1.6342 1.57162 0.731098
                CHANNELS 3 Zrotation Xrotation Yrotation
                End Site
                {
                  OFFSET 0 0 0
                }
              }
              JOINT Bip01_R_Toe0__vYg
              {
                OFFSET 1.23943 0.690069 2.0466
                CHANNELS 3 Zrotation Xrotation Yrotation
                End Site
                {
                  OFFSET 0 0 0
                }
              }
            }
          }
        }
      }
      JOINT Bip01_L_Thigh__UfG
      {
        OFFSET -3.85693 0.0539398 3.62084
        CHANNELS 3 Zrotation Xrotation Yrotation
        JOINT Bip01_L_Calf__IXD
        {
          OFFSET 12.5918 0 0
          CHANNELS 3 Zrotation Xrotation Yrotation
          JOINT Bip01_L_HorseLink__Idl
          {
            OFFSET 15.7835 0 0
            CHANNELS 3 Zrotation Xrotation Yrotation
            JOINT Bip01_L_Foot__ouF
            {
              OFFSET 21.6004 0 0
              CHANNELS 3 Zrotation Xrotation Yrotation
              JOINT Bip01_L_Toe2__w7U
              {
                OFFSET 1.21026 0.746124 0.418668
                CHANNELS 3 Zrotation Xrotation Yrotation
                JOINT Bip01_L_Toe21__Dqe
                {
                  OFFSET 3.68066 0 0
                  CHANNELS 3 Zrotation Xrotation Yrotation
                  End Site
                  {
                    OFFSET 0 0 0
                  }
                }
              }
              JOINT Bip01_L_Toe1__zUA
              {
                OFFSET 1.6342 1.57162 -0.731098
                CHANNELS 3 Zrotation Xrotation Yrotation
                JOINT Bip01_L_Toe11__DhW
                {
                  OFFSET 4.85137 0 0
                  CHANNELS 3 Zrotation Xrotation Yrotation
                  End Site
                  {
                    OFFSET 0 0 0
                  }
                }
              }
              JOINT Bip01_L_Toe0__8VZ
              {
                OFFSET 1.23943 0.690077 -2.0466
                CHANNELS 3 Zrotation Xrotation Yrotation
                JOINT Bip01_L_Toe01__haX
                {
                  OFFSET 4.00763 0 0
                  CHANNELS 3 Zrotation Xrotation Yrotation
                  End Site
                  {
                    OFFSET 0 0 0
                  }
                }
              }
            }
          }
        }
      }
      JOINT Bip01_Spine1__OBc
      {
        OFFSET 4.21346 -0.00363159 0
        CHANNELS 3 Zrotation Xrotation Yrotation
        JOINT Bip01_Neck__OQw
        {
          OFFSET 3.27705 3.81532 1.0252e-005
          CHANNELS 3 Zrotation Xrotation Yrotation
          JOINT Bip01_Neck1__6Ap
          {
            OFFSET 6.67094 -0.00200272 8.39234e-005
            CHANNELS 3 Zrotation Xrotation Yrotation
            JOINT Bip01_Neck2__9K1
            {
              OFFSET 6.49402 -0.00444794 2.52723e-005
              CHANNELS 3 Zrotation Xrotation Yrotation
              JOINT Bip01_Neck3__A5z
              {
                OFFSET 6.7845 -0.00572586 2.76565e-005
                CHANNELS 3 Zrotation Xrotation Yrotation
                JOINT Bip01_Neck4__PB6
                {
                  OFFSET 7.26459 -0.00499726 9.39667e-005
                  CHANNELS 3 Zrotation Xrotation Yrotation
                  JOINT Bip01_Head__N3g
                  {
                    OFFSET 6.98685 0 0
                    CHANNELS 3 Zrotation Xrotation Yrotation
                    JOINT BN_Mouth_01__VD1
                    {
                      OFFSET 2.83017 4.35701 3.04554e-005
                      CHANNELS 3 Zrotation Xrotation Yrotation
                      End Site
                      {
                        OFFSET 0 0 0
                      }
                    }
                  }
                }
              }
            }
          }
        }
      }
    }
  }
}
MOTION
Frames:	6
Frame Time:	0.0333333
-3.07492 49.6697 0.126782 89.0568 -85.6951 179.396 -89.6468 9.9261 -82.0937 -21.5527 -0.00372314 -179.745 63.5181 58.3203 -52.3555 -124.946 62.1609 135.269 11.2896 0.717068 5.39233 148.873 -19.5165 -14.3882 -170.401 -19.4737 0.912968 144.11 -6.56261 -7.58655 21.4779 -1.16918 4.2108 -32.1984 -19.2539 165.257 166.453 19.3717 2.22612 -152.334 7.24937 -2.7005 -2.81493 1.62049 -0.158943 21.4761 9.15527e-005 180 34.4248 -2.84364e-006 8.80155 -93.9585 1.23571 174.611 -39.5135 -2.8163e-006 6.16474e-007 24.7285 -1.51365e-005 8.78238e-006 4.75678 -9.99157 1.34076 73.1422 -12.3476 35.2107 76.4172 1.31358e-005 -7.9833e-006 71.7008 6.44296 -29.3862 -114.178 19.4662 -176.458 -27.0565 7.78898e-006 6.9252e-006 25.9539 9.7239e-006 -2.93583e-006 -22.2134 10.5072 1.98876 82.7715 5.45549 -36.8542 -57.4916 -7.95425e-006 1.56016e-005 88.1596 9.41284e-006 -9.57705e-006 9.23523 1.8506e-006 9.82585e-006 81.9524 -0.672816 30.4645 8.11027 8.49897e-006 9.97424e-006 8.03488 0.164151 -10.0774 -23.284 -0.0658166 1.62372 -66.9303 0.925102 -1.58996 -34.9449 0.260187 0.0103422 8.3492 0.272188 -2.67134 26.0907 0.936733 0.41599 45.8476 -2.2026 1.10592 -66.878 0.000152588 -180
-3.07492 49.5918 0.0848484 89.3864 -85.5067 -179.997 -90.0032 9.96238 -81.9997 -21.0964 0.00451659 179.973 62.7756 58.7221 -51.3435 -124.554 62.0322 135.031 11.3235 0.73463 5.32726 149.116 -19.5752 -14.3067 -170.685 -19.4778 0.818419 143.998 -6.55228 -7.77742 21.1052 -1.24721 3.80919 -32.1979 -19.254 165.257 166.699 19.3805 2.14469 -152.385 7.25279 -2.32187 -4.07669 1.65228 0.259741 21.457 7.6294e-005 180 34.836 -3.6481e-006 8.93689 -95.1751 1.46428 174.7 -45.0711 -1.16579e-005 9.1155e-006 28.7051 -2.35707e-005 -6.77116e-006 1.47129 -10.2033 0.914353 67.5745 -16.0644 33.8426 69.864 8.61853e-006 -8.39063e-006 65.9127 9.6209 -28.5764 -113.375 19.4657 -176.407 -24.8064 1.64305e-005 -1.14986e-005 22.7469 1.27056e-005 4.36858e-006 -17.7639 10.7193 1.59261 83.5107 4.89286 -36.9221 -57.4916 -8.13644e-006 1.53811e-005 89.0836 0.00015049 -7.46808e-006 9.23523 1.84488e-006 9.82603e-006 82.747 -0.197171 30.4707 8.11027 8.48349e-006 9.95277e-006 8.06523 0.056126 -10.1131 -23.001 0.0135181 2.10147 -67.2574 0.941271 -1.38936 -34.5285 0.285666 0.133015 8.11712 0.262519 -2.67738 26.0068 0.968235 0.496226 45.5282 -2.1798 0.856086 -66.8606 0.000152588 -180
-3.07492 49.4876 0.0396875 89.5854 -85.4406 -179.632 -90.339 9.92613 -81.9722 -20.5992 -0.00762928 179.762 62.0155 59.1712 -50.5402 -124.172 61.876 134.598 11.2963 0.724619 5.19797 149.343 -19.6296 -14.2305 -170.958 -19.4812 0.727375 143.894 -6.54258 -7.9651 20.7395 -1.32369 3.41826 -32.1974 -19.2541 165.257 166.927 19.3884 2.06891 -152.436 7.25565 -1.94603 -5.46947 1.68404 0.730392 21.5255 -0.00135803 179.996 35.2361 -5.45573e-008 8.9368 -96.5424 1.57988 174.823 -50.9532 -8.89619e-006 4.92661e-006 32.9808 -1.41104e-005 1.02592e-005 -2.08141 -10.4312 0.438468 61.172 -20.0003 31.8577 62.6169 1.05643e-005 -6.74136e-006 59.3832 13.0197 -27.2929 -115.14 19.1225 -175.467 -28.2777 7.64943e-006 7.07651e-006 23.4763 1.33013e-005 5.4485e-006 -15.0879 10.858 1.23349 82.1274 4.90936 -36.9329 -57.4916 -7.95383e-006 1.55916e-005 87.7272 0.0150122 0.00058593 9.23523 1.84533e-006 9.82601e-006 81.3877 -0.168838 30.4808 8.11027 8.49384e-006 9.98963e-006 8.03554 -0.0333452 -10.0437 -22.7667 0.0875825 2.55981 -67.6571 0.956583 -1.25068 -34.104 0.312171 0.257907 8.22102 0.251754 -2.58906 25.9286 0.9969 0.608605 45.0379 -2.14208 0.58556 -66.8775 0.000152588 -180
-3.07492 49.3448 -0.0108433 89.708 -85.476 -179.408 -90.6632 9.82176 -82.007 -20.0112 -0.0249929 179.508 61.0817 59.6467 -49.6971 -123.532 61.6367 133.871 11.212 0.688732 4.94641 149.559 -19.681 -14.1579 -171.226 -19.4842 0.637811 143.796 -6.53331 -8.15122 20.377 -1.39936 3.02912 -32.1971 -19.2542 165.257 167.143 19.3957 1.99719 -152.486 7.25802 -1.57026 -6.99126 1.71592 1.2558 21.7235 9.15486e-005 180 35.67 2.86378e-006 8.93653 -98.0547 1.52337 174.971 -57.1591 -3.28263e-006 4.90534e-009 37.5697 -2.43335e-005 -3.06064e-006 -5.93658 -10.6676 -0.0938245 53.8901 -23.9824 29.126 54.7804 7.27709e-006 -8.13876e-006 52.123 16.5048 -25.4398 -116.696 18.5617 -174.652 -31.7722 6.69856e-006 8.34347e-006 24.5421 1.34022e-005 5.20077e-006 -12.9037 10.8618 0.920698 81.0242 4.92597 -36.9591 -57.4916 -7.81188e-006 1.57553e-005 86.705 0.0270537 0.00154767 9.23523 1.84567e-006 9.82599e-006 80.3564 -0.113613 30.4889 8.11027 8.5048e-006 1.00175e-005 7.95011 -0.107553 -9.84169 -22.5328 0.162679 3.01932 -68.1809 0.96894 -1.14127 -33.6077 0.340691 0.391366 8.61382 0.23766 -2.41434 25.8419 1.02114 0.746713 44.3415 -2.11233 0.284698 -66.9265 0.000152588 -180
-3.07492 49.1719 -0.0654085 89.7757 -85.599 -179.293 -90.975 9.65559 -82.1031 -19.3426 -0.0545608 179.256 59.987 60.1434 -48.8166 -122.671 61.317 132.89 11.0759 0.629681 4.58277 149.76 -19.7286 -14.0901 -171.488 -19.4868 0.550431 143.704 -6.52461 -8.33172 20.0255 -1.47258 2.64479 -32.1966 -19.2543 165.257 167.344 19.4022 1.93044 -152.534 7.25992 -1.20344 -8.60068 1.74702 1.82588 22.0401 9.15527e-005 180 36.1331 -1.11733e-006 8.93601 -99.6677 1.29515 175.132 -63.5159 -1.02413e-005 3.12101e-006 42.3639 -6.09567e-006 1.91689e-005 -10.0295 -10.8973 -0.674728 45.9109 -27.709 25.6409 46.692 7.46709e-006 -7.86764e-006 44.3614 19.8292 -23.0151 -118.008 17.8127 -173.985 -35.2142 7.84618e-006 6.37619e-006 25.8909 1.59268e-006 -1.96944e-005 -11.179 10.7503 0.662206 80.1823 4.94126 -36.9893 -57.4916 5.73384e-007 1.05983e-005 85.9989 0.0363619 0.00253349 9.23523 1.84594e-006 9.82596e-006 79.6354 -0.0315006 30.4948 8.11027 8.51427e-006 1.00373e-005 7.81408 -0.167336 -9.51485 -22.3015 0.238544 3.47669 -68.8008 0.978097 -1.05577 -33.0662 0.3709 0.530462 9.24283 0.222994 -2.17071 25.7486 1.04104 0.90514 43.491 -2.08343 -0.0400818 -67.0048 0.000152588 -180
-3.07492 48.9838 -0.120924 89.8006 -85.7881 -179.269 -91.2655 9.44186 -82.2533 -18.6268 -0.0925306 179.008 58.7846 60.641 -47.9287 -121.662 60.9327 131.737 10.9001 0.552789 4.1333 149.939 -19.7708 -14.0297 -171.734 -19.4889 0.468423 143.622 -6.51683 -8.49771 19.7018 -1.53979 2.27884 -32.1963 -19.2544 165.257 167.522 19.4077 1.87127 -152.579 7.26131 -0.864194 -10.2065 1.77571 2.41202 22.4488 9.15527e-005 180 36.6058 3.48661e-006 8.93527 -101.287 0.914075 175.287 -69.6655 1.56124e-005 -7.67452e-006 47.1093 -1.01817e-005 1.43193e-005 -14.1659 -11.0994 -1.27486 37.761 -30.8272 21.6501 38.9324 1.47355e-005 9.77874e-007 36.6196 22.6916 -20.2037 -119.027 16.9354 -173.492 -38.4393 7.0661e-006 7.32162e-006 27.4164 9.91456e-006 -2.67718e-006 -9.90402 10.5519 0.464666 79.5933 4.95367 -37.0158 -57.4916 -7.6408e-006 1.59557e-005 85.593 0.0429533 0.00330049 9.23523 1.84611e-006 9.82593e-006 79.2096 0.0729689 30.4983 8.11027 8.52079e-006 1.00493e-005 7.63901 -0.212574 -9.08704 -22.0817 0.312623 3.91583 -69.4663 0.983855 -0.990101 -32.5236 0.401377 0.668127 10.0254 0.21094 -1.88612 25.6537 1.05633 1.07297 42.5694 -2.0499 -0.371102 -67.1059 0.000152588 -180
